<?xml version="1.0" encoding="UTF-8" standalone="no"?>
<!DOCTYPE svg PUBLIC "-//W3C//DTD SVG 1.1//EN" "http://www.w3.org/Graphics/SVG/1.1/DTD/svg11.dtd">
<svg width="100%" height="100%" viewBox="0 0 100 100" version="1.1" xmlns="http://www.w3.org/2000/svg" xmlns:xlink="http://www.w3.org/1999/xlink" xml:space="preserve" xmlns:serif="http://www.serif.com/" style="fill-rule:evenodd;clip-rule:evenodd;stroke-linejoin:round;stroke-miterlimit:2;">
    <circle cx="50" cy="48.359" r="32.715" style="fill:rgb(235,235,235);"/>
    <path d="M50,2.5C23.942,2.5 2.5,23.942 2.5,50C2.5,76.058 23.942,97.5 50,97.5C76.058,97.5 97.5,76.058 97.5,50C97.5,23.942 76.058,2.5 50,2.5ZM73.35,54.17L55.35,72.17C54.29,73.23 52.85,73.827 51.35,73.827C48.247,73.827 45.693,71.273 45.693,68.17C45.693,66.67 46.29,65.23 47.35,64.17L56,55.6L30.64,55.6C27.546,55.6 25,53.054 25,49.96C25,46.866 27.546,44.32 30.64,44.32L55.88,44.32L47.37,35.8C46.31,34.74 45.713,33.3 45.713,31.8C45.713,28.697 48.267,26.143 51.37,26.143C52.87,26.143 54.31,26.74 55.37,27.8L73.37,45.8C74.477,46.91 75.069,48.434 75,50L75,50.18C75.003,51.676 74.409,53.113 73.35,54.17Z" style="fill-rule:nonzero;"/>
</svg>
